
<svg xmlns="http://www.w3.org/2000/svg" >
<symbol id="shape" width="1rem" 
   height="1rem"
  
   viewBox="0 0 1000 1000">
<path d="M500,10C236.3,10,22.6,229.4,22.6,500c0,270.6,213.8,490,477.4,490c263.7,0,477.4-219.4,477.4-490C977.4,229.4,763.7,10,500,10z M643.3,940.1c-23,4.6-31.1-9.9-31.1-22.3c0-15.2,0.5-65.2,0.5-127.2c0-43.3-14.5-71.6-30.7-86c100.8-11.4,206.5-50.7,206.5-228.8c0-50.6-17.5-92.1-46.5-124.5c4.6-11.7,20.2-58.8-4.5-122.7c0,0-37.9-12.5-124.3,47.6c-36.1-10.3-74.8-15.5-113.2-15.7c-38.5,0.2-77.2,5.3-113.2,15.7c-86.4-60-124.4-47.6-124.4-47.6c-24.6,63.9-9.1,111-4.4,122.7c-28.9,32.4-46.5,73.8-46.5,124.5c0,177.7,105.6,217.5,206,229.2c-12.9,11.6-24.6,32-28.7,62c-25.8,11.8-91.3,32.3-131.6-38.6c0,0-23.9-44.5-69.3-47.8c0,0-44.2-0.6-3.1,28.2c0,0,29.7,14.2,50.2,67.8c0,0,26.6,90.2,152.4,62.2c0.2,38.7,0.6,67.9,0.6,78.9c0,12.3-8.2,26.6-30.9,22.3c-179.8-61.3-309.3-235.1-309.3-440C47.7,244,250.2,36.4,500,36.4c249.8,0,452.3,207.6,452.3,463.8C952.3,705,822.8,878.7,643.3,940.1z"/>
</symbol>
<symbol id="linkedin" width="1rem" 
   height="1rem"
  
   viewBox="0 0 200 200">
	<defs>
		<linearGradient id="linearGradient3003" y2="425.4" gradientUnits="userSpaceOnUse" x2="-395.85" gradientTransform="matrix(-0.50335197,0,0,0.50335205,-148.17928,-158.80197)" y1="274.71" x1="-344.15">
			<stop stop-color="--color-linkedin" offset="0"/>
			<stop stop-color="--color-linkedin" stop-opacity="0" offset="1"/>
		</linearGradient>
	</defs>
	
	<path opacity="0.7811159" d="m147.16,8.5612-94.32,0c-24.967,0-45.066,20.263-45.066,45.433v92.02c0.80814,19.647,3.9167,7.2266,9.8337-14.531,6.8768-25.287,29.273-47.388,56.547-63.952,20.817-12.642,44.119-20.715,86.533-21.483,24.054-0.43553,21.931-31.218-13.527-37.487z" fill="url(#linearGradient3003)"/>
	<path d="m63.992,167.85,0-90.884-30.208,0,0,90.884,30.208,0zm-15.1-103.3c10.534,0,17.091-6.9789,17.091-15.7-0.19632-8.9179-6.5566-15.703-16.891-15.703-10.333,0-17.09,6.7852-17.09,15.703,0,8.7216,6.5553,15.7,16.693,15.7h0.19633z" fill="--color-linkedin"/>
	<path d="m80.712,167.85,30.208,0,0-50.754c0-2.7163,0.19632-5.4298,0.99398-7.3715,2.1838-5.4271,7.1542-11.048,15.499-11.048,10.931,0,15.304,8.3343,15.304,20.552v48.621h30.206v-52.112c0-27.916-14.903-40.905-34.778-40.905-16.296,0-23.451,9.1089-27.426,15.313h0.2017v-13.181h-30.208c0.39641,8.528,0,90.884,0,90.884z" fill="--color-linkedin"/>
</symbol>
</svg>